<?xml version="1.0" encoding="UTF-8" standalone="no"?>
<svg
   viewBox="0 0 353 35"
   version="1.1"
   id="svg2731"
   width="353"
   height="35"
   xmlns="http://www.w3.org/2000/svg">
  <defs
     id="defs2735" />
  <path
     d="m 32.938005,24.798352 -7.420001,7.59945 -5.194001,-5.319615 2.226,-2.279835 2.968001,3.03978 5.194001,-5.319615 2.226,2.279835 M 6.9680005,2 C 5.3207602,2 4,3.3679011 4,5.0397802 V 29.358022 c 0,1.687078 1.3207602,3.03978 2.9680005,3.03978 H 18.558043 C 18.023802,31.45547 17.652802,30.421945 17.474722,29.358022 H 6.9680005 V 5.0397802 H 17.356002 v 7.5994508 h 7.420002 v 6.201151 c 0.48972,-0.07599 0.99428,-0.121591 1.484,-0.121591 0.50456,0 0.99428,0.0456 1.484,0.121591 V 11.119341 L 18.840003,2 M 9.936001,17.198901 v 3.03978 h 11.872002 v -3.03978 M 9.936001,23.278462 v 3.03978 h 7.420001 v -3.03978 z"
     id="path2729"
     style="fill:#3b8fde;fill-opacity:1;stroke-width:1.50184" />
  <path
     style="fill:#008000;fill-opacity:1;stroke-width:0.159966"
     d="m 22.98062,29.666635 -2.454004,-2.54692 1.002194,-1.127649 1.002195,-1.127647 1.489599,1.564832 1.489599,1.564832 2.601653,-2.687835 2.601652,-2.687835 1.06946,1.07638 1.069459,1.076379 -3.610241,3.691016 c -1.985632,2.030059 -3.654638,3.704595 -3.708901,3.721191 -0.05426,0.0166 -1.202963,-1.115938 -2.552665,-2.516744 z"
     id="path6547" />
  <text
     xml:space="preserve"
     style="font-style:normal;font-variant:normal;font-weight:normal;font-stretch:normal;font-size:26.6667px;font-family:'Arial Black';-inkscape-font-specification:'Arial Black, Normal';font-variant-ligatures:normal;font-variant-caps:normal;font-variant-numeric:normal;font-variant-east-asian:normal;fill:#3d3d3d;fill-opacity:1"
     x="43.948547"
     y="27.048"
     id="text7329"><tspan
       id="tspan16472">VC Kit | Issuer Demo</tspan></text>
</svg>
